<?xml version="1.0" encoding="UTF-8"?>
<svg id="Layer_2" data-name="Layer 2" xmlns="http://www.w3.org/2000/svg" viewBox="0 0 592.32 122.92">
  <defs>
    <style>
      .cls-1 {
        font-family: SourceSerifVariable-Roman, 'Source Serif Variable';
        font-size: 31.78px;
        font-variation-settings: 'wght' 389;
      }

      .cls-2 {
        stroke-width: 0px;
      }

      .cls-3 {
        letter-spacing: -.02em;
      }

      .cls-4 {
        letter-spacing: -.03em;
      }

      .cls-5 {
        letter-spacing: 0em;
      }
    </style>
  </defs>
  <g id="Layer_2-2" data-name="Layer 2">
    <g>
      <text class="cls-1" transform="translate(0 112.27)"><tspan class="cls-5" x="0" y="0">S</tspan><tspan x="15.89" y="0">h</tspan><tspan class="cls-3" x="34.95" y="0">a</tspan><tspan x="50.46" y="0">pe of </tspan><tspan class="cls-4" x="128.63" y="0">M</tspan><tspan x="156.34" y="0">y</tspan></text>
      <g>
        <path class="cls-2" d="m230.49,72.02l-14.1,6.34c2.21.17,4.44.3,6.61.41,2.29.11,4.89.25,7.53.55l13.72-4.49c-4.32-1.64-9.19-2.42-13.76-2.81Z"/>
        <path class="cls-2" d="m223,71.58c-2.74-.12-5.69-.26-8.57-.56l-9.57,5.66c2.55.64,5.29,1.06,8.09,1.36l13.96-6.28c-1.36-.08-2.69-.14-3.91-.18Z"/>
        <path class="cls-2" d="m197.83,59.33c0-10.46,11.93-14.38,21.9-14.38,3.84,0,7.52.53,10.92,1.38l6.44-4.93c-5.1-1.65-11.03-2.82-17.36-2.82-13.4,0-29.58,5.23-29.58,21.57,0,6.03,2.29,10.01,5.9,12.69l6.59-5.05c-2.92-1.77-4.81-4.42-4.81-8.45Z"/>
        <path class="cls-2" d="m204.3,68.66l-6.75,5.17c1.52.9,3.21,1.64,5.03,2.22l9.1-5.38c-2.69-.41-5.23-1.04-7.39-2.01Z"/>
        <path class="cls-2" d="m190.31,99.04l-2.68,4.7h9.94c-2.72-1.52-5.12-3.16-7.26-4.7Z"/>
        <path class="cls-2" d="m250.41,47.76c-2.67-1.87-6.6-3.98-11.38-5.71l-6.31,4.83c4.35,1.28,8.16,3.02,11.17,4.74l6.52-3.86Z"/>
        <path class="cls-2" d="m222.18,110.15c-8.7,0-15.64-2.03-21.31-4.71h-12.9c7.18,5.23,17.77,11.09,34.38,11.09,12.85,0,24.32-3.6,30.29-11.09h-10.58c-5,3.15-12.11,4.71-19.88,4.71Z"/>
        <path class="cls-2" d="m256.99,92.5c0-3.3-.67-6.04-1.77-8.37l-8.26,1.86c1.45,1.85,2.35,4.17,2.35,7.16,0,.25-.04.48-.05.72l7.7-.81c0-.19.03-.37.03-.57Z"/>
        <path class="cls-2" d="m248,54.26l2.56-4.61-5,2.96c.91.57,1.74,1.13,2.44,1.65Z"/>
        <path class="cls-2" d="m256.85,94.79l-7.76.82c-.56,3.26-2.22,5.97-4.7,8.12h9.43c1.65-2.58,2.7-5.55,3.03-8.94Z"/>
        <path class="cls-2" d="m246.6,75.86l-12.26,4.01c4.33.78,8.45,2.15,11.28,4.69l8.75-1.97c-1.86-3-4.58-5.17-7.77-6.72Z"/>
        <rect class="cls-2" x="283.13" y="105.44" width="7.68" height="8.96"/>
        <polygon class="cls-2" points="283.13 46.49 290.81 43.03 290.81 25.85 283.13 30.39 283.13 46.49"/>
        <path class="cls-2" d="m283.13,62.12l7.68-2.51v-.45c6.37-6.21,16.34-13.57,29.42-13.57,3.28,0,6.29.52,8.96,1.47l9.83-3.21c-4.82-3.24-11.04-5.12-18.3-5.12-13.08,0-23.54,7.03-29.91,13.4v-7.24l-7.68,3.45v13.77Z"/>
        <path class="cls-2" d="m341.89,62.84l7.71-1.74c-.79-6.53-3.94-12.07-8.88-16.01l-9.14,2.99c5.98,2.94,9.79,8.26,10.32,14.76Z"/>
        <polygon class="cls-2" points="341.97 85.81 341.97 103.74 349.81 103.74 349.81 84.98 341.97 85.81"/>
        <rect class="cls-2" x="341.97" y="105.44" width="7.84" height="8.96"/>
        <polygon class="cls-2" points="283.13 92.02 283.13 103.74 290.81 103.74 290.81 91.21 283.13 92.02"/>
        <path class="cls-2" d="m349.81,83.26v-18.87c0-.54-.05-1.05-.08-1.58l-7.77,1.75v19.53l7.84-.83Z"/>
        <polygon class="cls-2" points="290.81 76.11 283.13 77.84 283.13 90.31 290.81 89.49 290.81 76.11"/>
        <polygon class="cls-2" points="290.81 61.4 283.13 63.91 283.13 76.09 290.81 74.36 290.81 61.4"/>
        <polygon class="cls-2" points="290.81 0 283.13 0 283.13 6.12 290.81 .24 290.81 0"/>
        <polygon class="cls-2" points="283.13 28.41 290.81 23.87 290.81 2.38 283.13 8.27 283.13 28.41"/>
        <rect class="cls-2" x="382" y="105.44" width="7.68" height="8.96"/>
        <polygon class="cls-2" points="389.68 40.69 382 40.69 382 53.79 389.68 52.06 389.68 40.69"/>
        <polygon class="cls-2" points="382 81.58 382 103.74 389.68 103.74 389.68 80.77 382 81.58"/>
        <path class="cls-2" d="m380.2,9.48c0,2.94,2.29,5.23,5.56,5.23s5.72-2.12,5.72-5.23c0-2.94-2.45-5.23-5.72-5.23s-5.56,2.29-5.56,5.23Z"/>
        <polygon class="cls-2" points="389.68 79.05 389.68 53.8 382 55.54 382 79.87 389.68 79.05"/>
        <polygon class="cls-2" points="482.18 71 482.18 103.74 490.03 103.74 490.03 70.17 482.18 71"/>
        <polygon class="cls-2" points="423.18 77.23 423.18 103.74 431.03 103.74 431.03 76.4 423.18 77.23"/>
        <rect class="cls-2" x="423.18" y="105.44" width="7.85" height="8.96"/>
        <path class="cls-2" d="m428.08,40.69h-7.35c.43,1.38.79,2.75,1.1,4.11l7.03-1.59c-.23-.83-.47-1.67-.78-2.52Z"/>
        <path class="cls-2" d="m423.18,57.36v18.15l7.85-.83v-15.53c6.37-6.37,16.34-13.57,29.42-13.57s21.74,8.01,21.74,18.8v4.89l7.84-.83v-4.07c0-14.87-11.93-25.66-28.6-25.66-14.22,0-24.35,7.19-31.05,14.05-.21-2.77-.53-5.33-1.11-7.91l-7.12,1.61c.71,3.7,1.03,7.33,1.03,10.88Z"/>
        <rect class="cls-2" x="482.18" y="105.44" width="7.84" height="8.96"/>
        <path class="cls-2" d="m592.16,76.49c.16-.82.16-1.8.16-2.45-.11-5.47-1.2-10.22-2.96-14.35l-7.85.83c1.36,2.89,2.21,6.19,2.32,9.93h-59.33c.3-1.38.71-2.72,1.17-4.03l-8.12.86c-.99,3.54-1.55,7.28-1.55,11.18,0,9.77,3.19,18.6,8.97,25.29h11.02c-7.92-5.64-12.31-14.9-12.31-25.45v-1.8h68.48Z"/>
        <path class="cls-2" d="m554.9,45.27c9.76,0,20.58,4.46,25.79,13.61l7.98-.84c-6.51-13.28-20.61-19.31-33.43-19.31-17.54,0-31.94,11.07-37.13,26.76l8.25-.87c4.69-11.28,15.23-19.35,28.55-19.35Z"/>
        <path class="cls-2" d="m555.39,109.5c-6.48,0-12.08-1.49-16.71-4.06h-12.18c6.68,6.77,16.31,10.93,28.24,10.93,13,0,24.16-4.52,32.02-10.93h-13.1c-5.32,2.51-11.48,4.06-18.26,4.06Z"/>
        <path class="cls-2" d="m590.2,102.31l-5.23-4.9c-2.28,2.39-5.01,4.52-8.09,6.33h11.84c.51-.47,1-.94,1.47-1.43Z"/>
      </g>
    </g>
  </g>
</svg>